{
	"asset":{
		"version":"2.0",
		"generator":"Created using the official Cinema 4D glTF Exporter 1.000x284978"
	},
	"scenes":[{
		"nodes":[0]
	}],
	"accessors":[{
		"bufferView":0,
		"type":"SCALAR",
		"componentType":5123,
		"count":49464,
		"byteOffset":0,
		"min":[0],
		"max":[8838]
	},
	{
		"bufferView":1,
		"type":"VEC3",
		"componentType":5126,
		"count":8839,
		"byteOffset":0,
		"min":[-145.69618225097657,
		-145.69618225097657,
		-145.69618225097657],
		"max":[145.69618225097657,
		145.69618225097657,
		145.69618225097657]
	},
	{
		"bufferView":1,
		"type":"VEC3",
		"componentType":5126,
		"count":8839,
		"byteOffset":12,
		"min":[-1.0,
		-1.0,
		-1.0],
		"max":[1.0,
		1.0,
		1.0]
	},
	{
		"bufferView":1,
		"type":"VEC2",
		"componentType":5126,
		"count":8839,
		"byteOffset":24,
		"min":[0.0,
		0.0],
		"max":[1.0,
		1.0]
	}],
	"nodes":[{
		"name":"planet",
		"translation":[-1.1390414321705196e-28,
		143.01962280273438,
		2.0044100855097886e-21],
		"rotation":[1.9852334701272665e-23,
		-4.440892098500626e-16,
		0.0,
		-1.0],
		"scale":[1.0,
		1.0,
		1.0],
		"mesh":0
	}],
	"meshes":[{
		"name":"planet",
		"primitives":[{
			"attributes":{
				"POSITION":1,
				"NORMAL":2,
				"TEXCOORD_0":3
			},
			"indices":0,
			"material":0
		}]
	}],
	"bufferViews":[{
		"buffer":0,
		"byteOffset":0,
		"byteLength":98928,
		"target":34963
	},
	{
		"buffer":0,
		"byteOffset":98928,
		"byteLength":282848,
		"target":34962,
		"byteStride":32
	}],
	"buffers":[{
		"uri":"data:application/octet-stream;base64,",
		"byteLength":381776
	}],
	"materials":[{
		"pbrMetallicRoughness":{
			"baseColorFactor":[1.0,
			1.0,
			1.0,
			1.0],
			"metallicFactor":1.0,
			"roughnessFactor":1.0
		},
		"emissiveFactor":[0.0,
		0.0,
		0.0],
		"alphaMode":"OPAQUE",
		"doubleSided":true,
		"name":""
	}]
}