{
	"asset":{
		"version":"2.0",
		"generator":"Created using the official Cinema 4D glTF Exporter 1.000x284978"
	},
	"scenes":[{
		"nodes":[0]
	}],
	"nodes":[{
		"name":"planet",
		"translation":[-230.48480224609376,
		25.56944465637207,
		111.31310272216797],
		"rotation":[2.7755575615628916e-17,
		0.0,
		0.0,
		-1.0],
		"scale":[1.0,
		1.0,
		1.0],
		"mesh":0
	}],
	"meshes":[{
		"name":"planet",
		"primitives":[{
			"attributes":{
				"POSITION":1,
				"NORMAL":2,
				"TEXCOORD_0":3
			},
			"indices":0
		}]
	}],
	"accessors":[{
		"bufferView":0,
		"type":"SCALAR",
		"componentType":5123,
		"count":6000,
		"max":[1249],
		"byteOffset":0,
		"min":[0]
	},
	{
		"bufferView":1,
		"type":"VEC3",
		"componentType":5126,
		"count":1250,
		"max":[544.7362670898438,
		442.5769348144531,
		566.2631225585938],
		"byteOffset":0,
		"min":[-681.0259399414063,
		-315.074462890625,
		-696.46337890625]
	},
	{
		"bufferView":1,
		"type":"VEC3",
		"componentType":5126,
		"count":1250,
		"max":[0.9958580136299133,
		0.9967455863952637,
		0.9938016533851624],
		"byteOffset":12,
		"min":[-0.995328426361084,
		-0.9974696636199951,
		-0.9926161170005798]
	},
	{
		"bufferView":1,
		"type":"VEC2",
		"componentType":5126,
		"count":1250,
		"max":[1.0,
		1.0],
		"byteOffset":24,
		"min":[0.0,
		0.0]
	}],
	"bufferViews":[{
		"byteOffset":0,
		"buffer":0,
		"byteLength":12000,
		"target":34963
	},
	{
		"byteOffset":12000,
		"buffer":0,
		"byteLength":40000,
		"target":34962,
		"byteStride":32
	}],
	"buffers":[{
		"uri":"data:application/octet-stream;base64,",
		"byteLength":52000
	}]
}